# xmcd CD database file generated by MAGIX-FreeDB-MP3_deluxe_17 v3.0beta1
#
# Track frame offsets:
#	150
#	22700
#	45948
#	61077
#	79806
#	104787
#	124289
#	144574
#	167514
#	186995
#	205860
#	224597
#	244889
#	267069
#
# Disc length: 3800
#
# Revision: 0
# Processed by: cddbd v1.5.2PL0 Copyright (c) Steve Scherf et al.
# Submitted via: MAGIX-FreeDB-MP3_deluxe_17 v3.0beta1
#
DISCID=c50ed60e
DTITLE=Lionel Richie - tuskegee
DYEAR=1900
DGENRE=engels
TTITLE0=sail on
TTITLE1=endless love
TTITLE2=lady
TTITLE3=You are
TTITLE4=hello
TTITLE5=my love
TTITLE6=deep river woman
TTITLE7=stuck on you
TTITLE8=dancing on the ceiling
TTITLE9=say you say me
TTITLE10=angel
TTITLE11=all night long
TTITLE12=just for you
TTITLE13=easy
EXTD=
EXTT0=
EXTT1=
EXTT2=
EXTT3=
EXTT4=
EXTT5=
EXTT6=
EXTT7=
EXTT8=
EXTT9=
EXTT10=
EXTT11=
EXTT12=
EXTT13=
PLAYORDER=
